<svg width="30" height="30" viewBox="0 0 30 30" fill="none" xmlns="http://www.w3.org/2000/svg">
<path opacity="0.4" d="M18.4291 5.77537C17.7547 5.65079 17.1354 6.08116 17.007 6.73946C16.8786 7.39775 17.3103 8.04048 17.9664 8.16931C19.9416 8.55438 21.4667 10.0833 21.8533 12.0653V12.0667C21.9633 12.6372 22.4656 13.052 23.0441 13.052C23.1216 13.052 23.1992 13.045 23.2783 13.0308C23.9343 12.8991 24.366 12.2578 24.2376 11.5981C23.6606 8.6379 21.3821 6.35156 18.4291 5.77537" fill="#FF6628"/>
<path opacity="0.4" d="M18.3352 0.843265C18.0191 0.797963 17.7017 0.891399 17.4492 1.09243C17.1896 1.29629 17.0273 1.59075 16.992 1.92061C16.9173 2.5874 17.3984 3.19049 18.0643 3.26552C22.6566 3.778 26.2261 7.35546 26.7425 11.9621C26.8116 12.5794 27.3294 13.0451 27.9474 13.0451C27.9939 13.0451 28.0391 13.0423 28.0856 13.0366C28.4087 13.0012 28.6965 12.8413 28.8997 12.5865C29.1015 12.3316 29.1932 12.0145 29.1565 11.6903C28.5131 5.9426 24.0647 1.48174 18.3352 0.843265" fill="#FF6628"/>
<path d="M22.9426 18.7884C22.0241 18.593 21.2975 19.0177 20.6541 19.3886C19.9953 19.7709 18.741 20.7831 18.0243 20.5226C14.3476 19.0163 10.8896 15.8097 9.39266 12.1346C9.12883 11.4027 10.1404 10.147 10.5199 9.48442C10.891 8.8417 11.3086 8.10978 11.1181 7.18958C10.946 6.3614 8.71968 3.53992 7.93242 2.76837C7.41181 2.25872 6.88133 1.97841 6.33532 1.93169C4.28252 1.84534 1.98987 4.57338 1.58778 5.22601C0.579011 6.61764 0.586065 8.46937 1.60471 10.7147C4.0596 16.7455 13.3445 25.847 19.4225 28.3839C20.5427 28.9063 21.5698 29.1682 22.4911 29.1682C23.3926 29.1682 24.1954 28.9177 24.8853 28.4208C25.4045 28.122 28.2573 25.7253 28.1811 23.6258C28.1374 23.0907 27.8566 22.5555 27.3515 22.0374C26.5812 21.246 23.7679 18.9625 22.9426 18.7884" fill="#FF6628"/>
</svg>
