<svg width="34" height="34" viewBox="0 0 34 34" fill="none" xmlns="http://www.w3.org/2000/svg">
<path fill-rule="evenodd" clip-rule="evenodd" d="M4.73691 12.7921C4.0877 15.5598 4.0877 18.4402 4.73691 21.2079C5.67445 25.2047 8.79525 28.3255 12.7921 29.2631C15.5598 29.9123 18.4402 29.9123 21.2079 29.2631C25.2048 28.3255 28.3256 25.2047 29.2631 21.2079C29.9123 18.4402 29.9123 15.5598 29.2631 12.7921C28.3256 8.79525 25.2048 5.67445 21.2079 4.7369C18.4402 4.0877 15.5598 4.0877 12.7921 4.73691C8.79526 5.67445 5.67445 8.79525 4.73691 12.7921ZM18.0849 21.5432C18.0849 22.105 17.6295 22.5603 17.0678 22.5603C16.506 22.5603 16.0506 22.105 16.0506 21.5432C16.0506 20.9815 16.506 20.5261 17.0678 20.5261C17.6295 20.5261 18.0849 20.9815 18.0849 21.5432ZM15.1013 14.1522C15.1013 13.1036 15.9514 12.2535 17 12.2535C18.0485 12.2535 18.8986 13.1036 18.8986 14.1522V14.3167C18.8986 14.8639 18.6812 15.3886 18.2943 15.7755L16.4246 17.6452C16.1068 17.963 16.1068 18.4782 16.4246 18.796C16.7424 19.1138 17.2576 19.1138 17.5753 18.796L19.445 16.9263C20.1371 16.2342 20.526 15.2955 20.526 14.3167V14.1522C20.526 12.2048 18.9473 10.6261 17 10.6261C15.0526 10.6261 13.474 12.2048 13.474 14.1522V14.8302C13.474 15.2796 13.8383 15.6439 14.2877 15.6439C14.737 15.6439 15.1013 15.2796 15.1013 14.8302V14.1522Z" fill="#FFCF19"/>
</svg>
