<svg width="30" height="24" viewBox="0 0 30 24" fill="none" xmlns="http://www.w3.org/2000/svg">
<path fill-rule="evenodd" clip-rule="evenodd" d="M1.29916 2.98851C0.835938 3.89763 0.835938 5.08775 0.835938 7.46797V16.5346C0.835938 18.9149 0.835938 20.105 1.29916 21.0141C1.70662 21.8138 2.35679 22.464 3.15648 22.8714C4.0656 23.3346 5.25571 23.3346 7.63594 23.3346H22.3693C24.7495 23.3346 25.9396 23.3346 26.8487 22.8714C27.6484 22.464 28.2986 21.8138 28.706 21.0141C29.1693 20.105 29.1693 18.9149 29.1693 16.5346V7.46797C29.1693 5.08775 29.1693 3.89763 28.706 2.98851C28.2986 2.18882 27.6484 1.53865 26.8487 1.13119C25.9396 0.667969 24.7495 0.667969 22.3693 0.667969H7.63594C5.25571 0.667969 4.0656 0.667969 3.15648 1.13119C2.35679 1.53865 1.70662 2.18882 1.29916 2.98851ZM8.72066 6.58309C8.07548 6.1405 7.19366 6.30473 6.75106 6.94991C6.30846 7.59509 6.47269 8.47691 7.11788 8.91951L12.5984 12.6792C14.0472 13.673 15.9581 13.673 17.4068 12.6792L22.8873 8.91951C23.5325 8.47691 23.6967 7.59509 23.2541 6.94991C22.8116 6.30473 21.9297 6.1405 21.2845 6.58309L15.804 10.3427C15.3211 10.674 14.6841 10.674 14.2012 10.3427L8.72066 6.58309Z" fill="#9B51E0"/>
</svg>
