<svg width="30" height="31" viewBox="0 0 30 31" fill="none" xmlns="http://www.w3.org/2000/svg">
<path fill-rule="evenodd" clip-rule="evenodd" d="M15.6995 0.949722C23.7455 1.33619 29.9547 8.17204 29.5682 16.218C28.4776 27.8474 16.8488 30.2869 11.1707 30.0531C8.45497 30.0254 4.88691 29.9494 2.5187 29.8105C1.77704 29.767 1.40865 28.9299 1.85557 28.3364L3.20693 26.5418C3.76027 25.807 3.7037 24.7907 3.1655 24.0447C1.30081 21.4601 0.266377 18.2493 0.431168 14.8185C0.817636 6.77252 7.65349 0.563254 15.6995 0.949722ZM7.42169 12.8291C7.42169 12.0329 8.06711 11.3875 8.86328 11.3875H20.4053C21.2014 11.3875 21.8469 12.0329 21.8469 12.8291C21.8469 13.6253 21.2014 14.2707 20.4053 14.2707H8.86328C8.06711 14.2707 7.42169 13.6253 7.42169 12.8291ZM7.4217 18.507C7.41839 17.7108 8.06113 17.0627 8.85729 17.0594L16.9282 17.0259C17.7244 17.0226 18.3725 17.6653 18.3758 18.4615C18.3791 19.2576 17.7364 19.9057 16.9402 19.909L8.86927 19.9426C8.07311 19.9459 7.42501 19.3031 7.4217 18.507Z" fill="#4FBF67"/>
</svg>
