<svg width="20" height="22" viewBox="0 0 20 22" fill="none" xmlns="http://www.w3.org/2000/svg">
<path d="M19.1064 15.3392L17.0594 11.5599V7.625C17.0594 3.69627 13.8631 0.5 9.93437 0.5C6.00564 0.5 2.80937 3.69627 2.80937 7.625V11.5599L0.762246 15.3391C0.669411 15.5105 0.622687 15.703 0.626652 15.8979C0.630617 16.0927 0.685135 16.2832 0.784865 16.4507C0.884594 16.6181 1.02611 16.7568 1.19556 16.8531C1.365 16.9494 1.55655 17 1.75145 17H5.82653C5.81516 17.1247 5.80942 17.2498 5.80932 17.375C5.80932 18.469 6.24392 19.5182 7.01751 20.2918C7.7911 21.0654 8.84031 21.5 9.93432 21.5C11.0283 21.5 12.0775 21.0654 12.8511 20.2918C13.6247 19.5182 14.0593 18.469 14.0593 17.375C14.0593 17.2484 14.0533 17.1236 14.0421 17H18.1172C18.3121 17 18.5036 16.9493 18.673 16.853C18.8424 16.7567 18.9839 16.6181 19.0836 16.4506C19.1834 16.2832 19.2379 16.0927 19.2418 15.8979C19.2458 15.7031 19.1991 15.5105 19.1063 15.3392H19.1064ZM12.5594 17.375C12.5597 17.7357 12.4856 18.0927 12.3418 18.4235C12.198 18.7543 11.9876 19.052 11.7236 19.2979C11.4597 19.5438 11.1478 19.7326 10.8077 19.8526C10.4675 19.9726 10.1062 20.0212 9.74638 19.9954C9.38656 19.9696 9.03594 19.8698 8.71638 19.7025C8.39683 19.5351 8.1152 19.3036 7.88908 19.0226C7.66296 18.7415 7.4972 18.4168 7.40214 18.0688C7.30709 17.7208 7.28478 17.357 7.3366 17H12.5321C12.5501 17.1242 12.5592 17.2495 12.5594 17.375ZM2.38103 15.5L4.30937 11.9401V7.625C4.30937 6.13316 4.902 4.70242 5.9569 3.64752C7.01179 2.59263 8.44253 2 9.93437 2C11.4262 2 12.857 2.59263 13.9118 3.64752C14.9667 4.70242 15.5594 6.13316 15.5594 7.625V11.9401L17.4876 15.5H2.38103Z" fill="black"/>
</svg>
