<svg width="16" height="16" viewBox="0 0 16 16" fill="none" xmlns="http://www.w3.org/2000/svg">
<path fill-rule="evenodd" clip-rule="evenodd" d="M9.8839 0.00634381C9.70543 -0.0192386 9.52617 0.0335251 9.38356 0.147047C9.23696 0.262168 9.14534 0.428454 9.12542 0.614726C9.08319 0.991267 9.35488 1.33183 9.73093 1.3742C12.3243 1.66361 14.34 3.68382 14.6316 6.28523C14.6706 6.63379 14.963 6.89681 15.312 6.89681C15.3383 6.89681 15.3637 6.89521 15.39 6.89201C15.5725 6.87203 15.735 6.78169 15.8497 6.63779C15.9637 6.49389 16.0155 6.31481 15.9948 6.13174C15.6314 2.88597 13.1194 0.366896 9.8839 0.00634381ZM9.93305 2.79337C9.55222 2.72302 9.20245 2.96605 9.12995 3.3378C9.05745 3.70954 9.30125 4.07249 9.67172 4.14524C10.7871 4.36269 11.6484 5.2261 11.8667 6.34533V6.34613C11.9288 6.66831 12.2125 6.90255 12.5391 6.90255C12.5829 6.90255 12.6268 6.89855 12.6714 6.89056C13.0419 6.81621 13.2857 6.45406 13.2131 6.08151C12.8873 4.40986 11.6006 3.11875 9.93305 2.79337ZM11.2001 10.4714C11.5612 10.2631 11.9692 10.0279 12.4837 10.1374C12.9498 10.2357 14.5385 11.5252 14.9735 11.9721C15.2587 12.2647 15.4173 12.5669 15.442 12.8691C15.485 14.0547 13.874 15.4082 13.5808 15.5768C13.1912 15.8575 12.7379 15.999 12.2288 15.999C11.7085 15.999 11.1285 15.8511 10.4959 15.5561C7.06365 14.1234 1.82042 8.98378 0.434129 5.57811C-0.141104 4.31018 -0.145088 3.2645 0.424568 2.47864C0.651634 2.1101 1.94631 0.569553 3.10554 0.61832C3.41387 0.644702 3.71343 0.802993 4.00742 1.0908C4.45199 1.5265 5.70922 3.1198 5.80642 3.58748C5.91398 4.10712 5.67815 4.52044 5.46861 4.88339C5.42392 4.96141 5.3637 5.05401 5.29773 5.15544C5.04736 5.54043 4.71411 6.05284 4.83203 6.37996C5.67735 8.45534 7.63012 10.2661 9.70637 11.1167C10.0275 11.2334 10.5396 10.8978 10.9233 10.6463C11.0233 10.5808 11.1146 10.521 11.1915 10.4763L11.2001 10.4714Z" fill="#1B1D21"/>
</svg>
