<svg width="28" height="35" viewBox="0 0 28 35" fill="none" xmlns="http://www.w3.org/2000/svg">
<path d="M13.7419 34.1389C6.16556 34.1389 0 27.9746 0 20.3982C0 12.8218 6.16556 6.65625 13.7419 6.65625C21.3183 6.65625 27.4839 12.8206 27.4839 20.3982C27.4839 27.9758 21.3183 34.1389 13.7419 34.1389ZM13.7419 8.51813C7.19223 8.51813 1.86311 13.8477 1.86311 20.3988C1.86311 26.9499 7.19272 32.2777 13.7419 32.2777C20.2912 32.2777 25.6208 26.948 25.6208 20.3988C25.6208 13.8496 20.2912 8.51813 13.7419 8.51813Z" fill="white"/>
<path d="M4.68393 12.2708C4.44613 12.2708 4.20714 12.1807 4.02522 11.9987L1.88602 9.85804C1.52237 9.49439 1.52237 8.90587 1.88602 8.54227C2.24967 8.17862 2.8396 8.17862 3.20326 8.54227L5.34246 10.6815C5.70611 11.0451 5.70611 11.6336 5.34246 11.9972C5.16076 12.1792 4.92152 12.2708 4.68399 12.2708L4.68393 12.2708Z" fill="white"/>
<path d="M22.7986 12.2703C22.5608 12.2703 22.3218 12.1802 22.1399 11.9983C21.7763 11.6346 21.7763 11.0461 22.1399 10.6825L24.2762 8.54617C24.6399 8.18253 25.2298 8.18253 25.5935 8.54617C25.9571 8.90982 25.9571 9.49835 25.5935 9.86195L23.4572 11.9983C23.2755 12.1802 23.0365 12.2703 22.7987 12.2703H22.7986Z" fill="white"/>
<path d="M26.4072 11.5976C26.1694 11.5976 25.9304 11.5074 25.7485 11.3255L22.8118 8.39016C22.4482 8.02651 22.4482 7.43658 22.8118 7.07439C23.1754 6.71218 23.7654 6.71218 24.129 7.07439L27.0658 10.0097C27.4294 10.3734 27.4294 10.9633 27.0658 11.3255C26.8841 11.5074 26.6451 11.5976 26.4073 11.5976H26.4072Z" fill="white"/>
<path d="M1.07598 11.5967C0.838185 11.5967 0.599191 11.5065 0.417268 11.3246C0.0536189 10.961 0.0536189 10.3724 0.417268 10.0088L3.35258 7.07352C3.71623 6.70987 4.30617 6.70987 4.66983 7.07352C5.03349 7.43717 5.03348 8.02569 4.66983 8.38929L1.73451 11.3246C1.55281 11.5065 1.31357 11.5967 1.07604 11.5967H1.07598Z" fill="white"/>
<path d="M10.9543 8.82346C10.4403 8.82346 10.0234 8.40684 10.0234 7.89265V5.1105C10.0234 4.59656 10.4401 4.17969 10.9543 4.17969C11.4682 4.17969 11.8851 4.59632 11.8851 5.1105V7.89265C11.8851 8.4066 11.4682 8.82346 10.9543 8.82346Z" fill="white"/>
<path d="M16.5285 8.82346C16.0145 8.82346 15.5977 8.40684 15.5977 7.89265V5.1105C15.5977 4.59656 16.0143 4.17969 16.5285 4.17969C17.0424 4.17969 17.4593 4.59632 17.4593 5.1105V7.89265C17.4607 8.4066 17.0441 8.82346 16.5285 8.82346Z" fill="white"/>
<path d="M18.137 6.04276H9.34488C8.83093 6.04276 8.41406 5.62613 8.41406 5.11195V0.930817C8.41406 0.416867 8.83069 0 9.34488 0H18.137C18.6509 0 19.0678 0.416628 19.0678 0.930817V5.11195C19.0692 5.62613 18.6526 6.04276 18.137 6.04276ZM10.2777 4.18137H17.2066V1.86163H10.2777V4.18137Z" fill="white"/>
<path d="M15.5533 20.3958C15.5533 21.3954 14.743 22.2056 13.7434 22.2056C12.7438 22.2056 11.9336 21.3954 11.9336 20.3958C11.9336 19.3962 12.7438 18.5859 13.7434 18.5859C14.743 18.5859 15.5533 19.3962 15.5533 20.3958Z" fill="white"/>
<path d="M13.7433 21.3266C13.2294 21.3266 12.8125 20.9099 12.8125 20.3957V11.9191C12.8125 11.4051 13.2291 10.9883 13.7433 10.9883C14.2573 10.9883 14.6741 11.4049 14.6741 11.9191V20.3976C14.6741 20.9101 14.2573 21.327 13.7433 21.327V21.3266Z" fill="white"/>
</svg>
