<svg width="258" height="172" viewBox="0 0 258 172" fill="none" xmlns="http://www.w3.org/2000/svg">
<path d="M217 32H37L18 50.5V115L38.5 131.5H217V100C210.667 99.3333 198.2 94.8 199 82C199.8 69.2 211.333 64.6667 217 64V32Z" fill="#FEA800"/>
<path fill-rule="evenodd" clip-rule="evenodd" d="M12.374 20.7729L8 25.2289L10.92 26.3699C17.744 29.0379 21.675 30.3049 22.03 29.9499C22.472 29.5079 18.414 18.1659 17.42 17.0619C17.05 16.6519 14.779 18.3219 12.374 20.7729ZM36.09 45.0579L26.379 54.8079L26.311 88.2939L26.242 121.78L36.136 131.544L46.031 141.308H136.562C212.365 141.308 227.281 141.083 228.241 139.926C229.03 138.975 229.302 133.142 229.113 121.193L228.839 103.84L225.024 103.221C217.343 101.974 211.954 95.8259 211.954 88.3079C211.954 80.7899 217.343 74.6419 225.024 73.3949L228.839 72.7759L229.113 55.4229C229.302 43.4739 229.03 37.6409 228.241 36.6899C227.281 35.5329 212.348 35.3079 136.448 35.3079H45.801L36.09 45.0579ZM178.977 41.8079C179.294 42.6329 180.419 43.3079 181.477 43.3079C182.536 43.3079 183.661 42.6329 183.977 41.8079C184.462 40.5439 187.689 40.3079 204.473 40.3079H224.394L224.116 54.4869L223.839 68.6669L221.024 69.4179C216.758 70.5569 211.554 74.9669 209.33 79.3259C206.941 84.0089 206.665 93.1049 208.788 97.2089C210.955 101.399 216.837 106.123 220.818 106.87L224.339 107.531V121.919V136.308H204.199C186.203 136.308 183.915 136.122 182.699 134.558C181.404 132.891 181.274 132.891 179.979 134.558C178.708 136.193 174.321 136.308 113.25 136.308H47.881L39.61 128.08L31.339 119.852V88.3509V56.8499L39.567 48.5789L47.795 40.3079H113.098C170.223 40.3079 178.474 40.4959 178.977 41.8079ZM178.966 53.8369C177.641 57.2889 178.305 62.2199 180.234 63.2519C182.997 64.7309 184.525 62.3429 184.15 57.1319C183.897 53.6069 183.447 52.7519 181.716 52.5049C180.464 52.3259 179.336 52.8729 178.966 53.8369ZM178.946 73.8899C177.827 76.8059 178.324 82.0509 179.839 83.3079C182.055 85.1469 184.339 82.8429 184.339 78.7669C184.339 74.2329 183.445 72.3079 181.339 72.3079C180.357 72.3079 179.28 73.0199 178.946 73.8899ZM179.539 93.5079C178.161 94.8859 177.956 101.156 179.224 103.156C179.694 103.898 180.925 104.344 181.959 104.148C185.322 103.509 184.809 92.3079 181.417 92.3079C181.044 92.3079 180.199 92.8479 179.539 93.5079ZM179.539 113.508C178.161 114.886 177.956 121.156 179.224 123.156C179.694 123.898 180.925 124.344 181.959 124.148C185.322 123.509 184.809 112.308 181.417 112.308C181.044 112.308 180.199 112.848 179.539 113.508ZM234.738 149.933C235.506 152.064 236.649 155.12 237.276 156.724L238.415 159.639L242.377 155.771C244.556 153.643 246.339 151.549 246.339 151.118C246.339 150.194 240.017 147.418 236.089 146.618L233.34 146.058L234.738 149.933Z" fill="black"/>
<rect x="120" width="4" height="12" rx="2" fill="#FEA800"/>
<rect x="128" y="4" width="4" height="12" rx="2" transform="rotate(90 128 4)" fill="#FEA800"/>
<rect x="54" y="157" width="5" height="15" rx="2.5" fill="#FEA800"/>
<rect x="64" y="162" width="5" height="15" rx="2.5" transform="rotate(90 64 162)" fill="#FEA800"/>
<rect x="245" y="74" width="4" height="12" rx="2" fill="#FEA800"/>
<rect x="253" y="78" width="4" height="12" rx="2" transform="rotate(90 253 78)" fill="#FEA800"/>
<rect x="212" y="6" width="3" height="9" rx="1.5" fill="#FEA800"/>
<rect x="218" y="9" width="3" height="9" rx="1.5" transform="rotate(90 218 9)" fill="#FEA800"/>
<rect x="3" y="104" width="3" height="9" rx="1.5" fill="#FEA800"/>
<rect x="9" y="107" width="3" height="9" rx="1.5" transform="rotate(90 9 107)" fill="#FEA800"/>
<rect x="146" y="162" width="3" height="9" rx="1.5" fill="#FEA800"/>
<rect x="152" y="165" width="3" height="9" rx="1.5" transform="rotate(90 152 165)" fill="#FEA800"/>
<circle cx="73" cy="14" r="4.5" stroke="#D9D9D9" stroke-width="3"/>
<circle cx="193" cy="157" r="4.5" stroke="#D9D9D9" stroke-width="3"/>
<circle cx="18" cy="147" r="4.5" stroke="#D9D9D9" stroke-width="3"/>
<circle cx="251.5" cy="35.5" r="5" stroke="#D9D9D9" stroke-width="3"/>
<circle cx="162" cy="18" r="3.5" stroke="#D9D9D9" stroke-width="3"/>
<circle cx="253" cy="114" r="2.5" stroke="black" stroke-width="3"/>
<circle cx="8" cy="72" r="2.5" stroke="#D9D9D9" stroke-width="3"/>
<circle cx="104" cy="160" r="2.5" stroke="#D9D9D9" stroke-width="3"/>
<path d="M34.6621 23.1821C34.2549 23.8354 33.2932 23.8029 32.9311 23.1236L30.6914 18.9225C30.3293 18.2432 30.8383 17.4266 31.6077 17.4526L36.3657 17.6136C37.1351 17.6396 37.5877 18.4887 37.1805 19.142L34.6621 23.1821Z" fill="#6AC42D"/>
<path d="M247.908 139.86C247.917 140.629 247.089 141.12 246.418 140.743L242.268 138.41C241.597 138.033 241.586 137.071 242.248 136.678L246.343 134.251C247.005 133.858 247.844 134.329 247.853 135.099L247.908 139.86Z" fill="#6AC42D"/>
<path d="M225.378 152.741C225.804 152.1 226.765 152.161 227.107 152.85L229.223 157.115C229.565 157.804 229.033 158.606 228.264 158.557L223.513 158.258C222.745 158.209 222.317 157.347 222.743 156.706L225.378 152.741Z" fill="#6AC42D"/>
<path d="M16.4284 39.0426C17.1388 39.3391 17.262 40.2934 16.65 40.7605L12.8656 43.6489C12.2537 44.1159 11.3656 43.7454 11.2671 42.9819L10.6579 38.2603C10.5594 37.4968 11.3243 36.913 12.0347 37.2094L16.4284 39.0426Z" fill="#6AC42D"/>
<path d="M57.168 74.918H52.8203V72.1758H57.168C57.8398 72.1758 58.3867 72.0664 58.8086 71.8477C59.2305 71.6211 59.5391 71.3086 59.7344 70.9102C59.9297 70.5117 60.0273 70.0625 60.0273 69.5625C60.0273 69.0547 59.9297 68.582 59.7344 68.1445C59.5391 67.707 59.2305 67.3555 58.8086 67.0898C58.3867 66.8242 57.8398 66.6914 57.168 66.6914H54.0391V81H50.5234V63.9375H57.168C58.5039 63.9375 59.6484 64.1797 60.6016 64.6641C61.5625 65.1406 62.2969 65.8008 62.8047 66.6445C63.3125 67.4883 63.5664 68.4531 63.5664 69.5391C63.5664 70.6406 63.3125 71.5938 62.8047 72.3984C62.2969 73.2031 61.5625 73.8242 60.6016 74.2617C59.6484 74.6992 58.5039 74.918 57.168 74.918ZM65.9922 63.9375H72.3555C73.6602 63.9375 74.7812 64.1328 75.7188 64.5234C76.6641 64.9141 77.3906 65.4922 77.8984 66.2578C78.4062 67.0234 78.6602 67.9648 78.6602 69.082C78.6602 69.9961 78.5039 70.7812 78.1914 71.4375C77.8867 72.0859 77.4531 72.6289 76.8906 73.0664C76.3359 73.4961 75.6836 73.8398 74.9336 74.0977L73.8203 74.6836H68.2891L68.2656 71.9414H72.3789C72.9961 71.9414 73.5078 71.832 73.9141 71.6133C74.3203 71.3945 74.625 71.0898 74.8281 70.6992C75.0391 70.3086 75.1445 69.8555 75.1445 69.3398C75.1445 68.793 75.043 68.3203 74.8398 67.9219C74.6367 67.5234 74.3281 67.2188 73.9141 67.0078C73.5 66.7969 72.9805 66.6914 72.3555 66.6914H69.5078V81H65.9922V63.9375ZM75.5312 81L71.6406 73.3945L75.3555 73.3711L79.293 80.8359V81H75.5312ZM95.3828 72.0703V72.8789C95.3828 74.1758 95.207 75.3398 94.8555 76.3711C94.5039 77.4023 94.0078 78.2812 93.3672 79.0078C92.7266 79.7266 91.9609 80.2773 91.0703 80.6602C90.1875 81.043 89.207 81.2344 88.1289 81.2344C87.0586 81.2344 86.0781 81.043 85.1875 80.6602C84.3047 80.2773 83.5391 79.7266 82.8906 79.0078C82.2422 78.2812 81.7383 77.4023 81.3789 76.3711C81.0273 75.3398 80.8516 74.1758 80.8516 72.8789V72.0703C80.8516 70.7656 81.0273 69.6016 81.3789 68.5781C81.7305 67.5469 82.2266 66.668 82.8672 65.9414C83.5156 65.2148 84.2812 64.6602 85.1641 64.2773C86.0547 63.8945 87.0352 63.7031 88.1055 63.7031C89.1836 63.7031 90.1641 63.8945 91.0469 64.2773C91.9375 64.6602 92.7031 65.2148 93.3438 65.9414C93.9922 66.668 94.4922 67.5469 94.8438 68.5781C95.2031 69.6016 95.3828 70.7656 95.3828 72.0703ZM91.832 72.8789V72.0469C91.832 71.1406 91.75 70.3438 91.5859 69.6562C91.4219 68.9688 91.1797 68.3906 90.8594 67.9219C90.5391 67.4531 90.1484 67.1016 89.6875 66.8672C89.2266 66.625 88.6992 66.5039 88.1055 66.5039C87.5117 66.5039 86.9844 66.625 86.5234 66.8672C86.0703 67.1016 85.6836 67.4531 85.3633 67.9219C85.0508 68.3906 84.8125 68.9688 84.6484 69.6562C84.4844 70.3438 84.4023 71.1406 84.4023 72.0469V72.8789C84.4023 73.7773 84.4844 74.5742 84.6484 75.2695C84.8125 75.957 85.0547 76.5391 85.375 77.0156C85.6953 77.4844 86.0859 77.8398 86.5469 78.082C87.0078 78.3242 87.5352 78.4453 88.1289 78.4453C88.7227 78.4453 89.25 78.3242 89.7109 78.082C90.1719 77.8398 90.5586 77.4844 90.8711 77.0156C91.1836 76.5391 91.4219 75.957 91.5859 75.2695C91.75 74.5742 91.832 73.7773 91.832 72.8789ZM99.5195 63.9375H102.496L106.879 76.4648L111.262 63.9375H114.238L108.074 81H105.684L99.5195 63.9375ZM97.9141 63.9375H100.879L101.418 76.1484V81H97.9141V63.9375ZM112.879 63.9375H115.855V81H112.34V76.1484L112.879 63.9375ZM132.953 72.0703V72.8789C132.953 74.1758 132.777 75.3398 132.426 76.3711C132.074 77.4023 131.578 78.2812 130.938 79.0078C130.297 79.7266 129.531 80.2773 128.641 80.6602C127.758 81.043 126.777 81.2344 125.699 81.2344C124.629 81.2344 123.648 81.043 122.758 80.6602C121.875 80.2773 121.109 79.7266 120.461 79.0078C119.812 78.2812 119.309 77.4023 118.949 76.3711C118.598 75.3398 118.422 74.1758 118.422 72.8789V72.0703C118.422 70.7656 118.598 69.6016 118.949 68.5781C119.301 67.5469 119.797 66.668 120.438 65.9414C121.086 65.2148 121.852 64.6602 122.734 64.2773C123.625 63.8945 124.605 63.7031 125.676 63.7031C126.754 63.7031 127.734 63.8945 128.617 64.2773C129.508 64.6602 130.273 65.2148 130.914 65.9414C131.562 66.668 132.062 67.5469 132.414 68.5781C132.773 69.6016 132.953 70.7656 132.953 72.0703ZM129.402 72.8789V72.0469C129.402 71.1406 129.32 70.3438 129.156 69.6562C128.992 68.9688 128.75 68.3906 128.43 67.9219C128.109 67.4531 127.719 67.1016 127.258 66.8672C126.797 66.625 126.27 66.5039 125.676 66.5039C125.082 66.5039 124.555 66.625 124.094 66.8672C123.641 67.1016 123.254 67.4531 122.934 67.9219C122.621 68.3906 122.383 68.9688 122.219 69.6562C122.055 70.3438 121.973 71.1406 121.973 72.0469V72.8789C121.973 73.7773 122.055 74.5742 122.219 75.2695C122.383 75.957 122.625 76.5391 122.945 77.0156C123.266 77.4844 123.656 77.8398 124.117 78.082C124.578 78.3242 125.105 78.4453 125.699 78.4453C126.293 78.4453 126.82 78.3242 127.281 78.082C127.742 77.8398 128.129 77.4844 128.441 77.0156C128.754 76.5391 128.992 75.957 129.156 75.2695C129.32 74.5742 129.402 73.7773 129.402 72.8789Z" fill="white"/>
<path d="M64.2188 111.453H68.8906C68.7969 112.984 68.375 114.344 67.625 115.531C66.8854 116.719 65.849 117.646 64.5156 118.312C63.1927 118.979 61.599 119.312 59.7344 119.312C58.276 119.312 56.9688 119.062 55.8125 118.562C54.6562 118.052 53.6667 117.323 52.8438 116.375C52.0312 115.427 51.4115 114.281 50.9844 112.938C50.5573 111.594 50.3438 110.089 50.3438 108.422V106.844C50.3438 105.177 50.5625 103.672 51 102.328C51.4479 100.974 52.0833 99.8229 52.9062 98.875C53.7396 97.9271 54.7344 97.1979 55.8906 96.6875C57.0469 96.1771 58.3385 95.9219 59.7656 95.9219C61.6615 95.9219 63.2604 96.2656 64.5625 96.9531C65.875 97.6406 66.8906 98.5885 67.6094 99.7969C68.3385 101.005 68.776 102.38 68.9219 103.922H64.2344C64.1823 103.005 64 102.229 63.6875 101.594C63.375 100.948 62.901 100.464 62.2656 100.141C61.6406 99.8073 60.8073 99.6406 59.7656 99.6406C58.9844 99.6406 58.3021 99.7865 57.7188 100.078C57.1354 100.37 56.6458 100.812 56.25 101.406C55.8542 102 55.5573 102.75 55.3594 103.656C55.1719 104.552 55.0781 105.604 55.0781 106.812V108.422C55.0781 109.599 55.1667 110.635 55.3438 111.531C55.5208 112.417 55.7917 113.167 56.1562 113.781C56.5312 114.385 57.0104 114.844 57.5938 115.156C58.1875 115.458 58.901 115.609 59.7344 115.609C60.7135 115.609 61.5208 115.453 62.1562 115.141C62.7917 114.828 63.276 114.365 63.6094 113.75C63.9531 113.135 64.1562 112.37 64.2188 111.453ZM90.6562 107.094V108.172C90.6562 109.901 90.4219 111.453 89.9531 112.828C89.4844 114.203 88.8229 115.375 87.9688 116.344C87.1146 117.302 86.0938 118.036 84.9062 118.547C83.7292 119.057 82.4219 119.312 80.9844 119.312C79.5573 119.312 78.25 119.057 77.0625 118.547C75.8854 118.036 74.8646 117.302 74 116.344C73.1354 115.375 72.4635 114.203 71.9844 112.828C71.5156 111.453 71.2812 109.901 71.2812 108.172V107.094C71.2812 105.354 71.5156 103.802 71.9844 102.438C72.4531 101.062 73.1146 99.8906 73.9688 98.9219C74.8333 97.9531 75.8542 97.2135 77.0312 96.7031C78.2188 96.1927 79.526 95.9375 80.9531 95.9375C82.3906 95.9375 83.6979 96.1927 84.875 96.7031C86.0625 97.2135 87.0833 97.9531 87.9375 98.9219C88.8021 99.8906 89.4688 101.062 89.9375 102.438C90.4167 103.802 90.6562 105.354 90.6562 107.094ZM85.9219 108.172V107.062C85.9219 105.854 85.8125 104.792 85.5938 103.875C85.375 102.958 85.0521 102.188 84.625 101.562C84.1979 100.938 83.6771 100.469 83.0625 100.156C82.4479 99.8333 81.7448 99.6719 80.9531 99.6719C80.1615 99.6719 79.4583 99.8333 78.8438 100.156C78.2396 100.469 77.724 100.938 77.2969 101.562C76.8802 102.188 76.5625 102.958 76.3438 103.875C76.125 104.792 76.0156 105.854 76.0156 107.062V108.172C76.0156 109.37 76.125 110.432 76.3438 111.359C76.5625 112.276 76.8854 113.052 77.3125 113.688C77.7396 114.312 78.2604 114.786 78.875 115.109C79.4896 115.432 80.1927 115.594 80.9844 115.594C81.776 115.594 82.4792 115.432 83.0938 115.109C83.7083 114.786 84.224 114.312 84.6406 113.688C85.0573 113.052 85.375 112.276 85.5938 111.359C85.8125 110.432 85.9219 109.37 85.9219 108.172ZM101.016 119H96.0625L96.0938 115.344H101.016C102.245 115.344 103.281 115.068 104.125 114.516C104.969 113.953 105.604 113.135 106.031 112.062C106.469 110.99 106.688 109.693 106.688 108.172V107.062C106.688 105.896 106.562 104.87 106.312 103.984C106.073 103.099 105.714 102.354 105.234 101.75C104.755 101.146 104.167 100.693 103.469 100.391C102.771 100.078 101.969 99.9219 101.062 99.9219H95.9688V96.25H101.062C102.583 96.25 103.974 96.5104 105.234 97.0312C106.505 97.5417 107.604 98.276 108.531 99.2344C109.458 100.193 110.172 101.339 110.672 102.672C111.182 103.995 111.438 105.469 111.438 107.094V108.172C111.438 109.786 111.182 111.26 110.672 112.594C110.172 113.927 109.458 115.073 108.531 116.031C107.615 116.979 106.516 117.714 105.234 118.234C103.964 118.745 102.557 119 101.016 119ZM98.7188 96.25V119H94.0312V96.25H98.7188ZM130.109 115.344V119H118V115.344H130.109ZM119.531 96.25V119H114.844V96.25H119.531ZM128.531 105.516V109.078H118V105.516H128.531ZM130.094 96.25V99.9219H118V96.25H130.094Z" fill="black"/>
</svg>
