<svg width="30" height="30" viewBox="0 0 30 30" fill="none" xmlns="http://www.w3.org/2000/svg">
<path d="M15 30C23.2843 30 30 23.2843 30 15C30 6.71573 23.2843 0 15 0C6.71573 0 0 6.71573 0 15C0 23.2843 6.71573 30 15 30Z" fill="#26599E"/>
<path d="M18.8015 13.5809L18.5528 15.6691C18.5421 15.7661 18.4958 15.8557 18.4229 15.9205C18.35 15.9854 18.2556 16.021 18.1581 16.0204H15.987V22.2178C15.9875 22.2918 15.9588 22.363 15.907 22.4158C15.8553 22.4687 15.7847 22.499 15.7107 22.5H13.4982C13.4614 22.4995 13.425 22.4917 13.3912 22.4772C13.3574 22.4626 13.3268 22.4415 13.3012 22.4151C13.2755 22.3887 13.2553 22.3576 13.2417 22.3233C13.2281 22.2891 13.2214 22.2526 13.2219 22.2158L13.2337 16.0204H11.5896C11.4849 16.0204 11.3845 15.9788 11.3105 15.9048C11.2365 15.8308 11.1949 15.7303 11.1949 15.6257V13.5375C11.1949 13.4328 11.2365 13.3324 11.3105 13.2584C11.3845 13.1844 11.4849 13.1428 11.5896 13.1428H13.2238V11.1178C13.2238 8.775 14.6173 7.5 16.6581 7.5H18.3298C18.4345 7.5 18.5349 7.54159 18.6089 7.61562C18.6829 7.68964 18.7245 7.79005 18.7245 7.89474V9.65329C18.7245 9.75798 18.6829 9.85838 18.6089 9.93241C18.5349 10.0064 18.4345 10.048 18.3298 10.048H17.3054C16.1962 10.0658 15.987 10.5967 15.987 11.3901V13.1368H18.4166C18.472 13.1378 18.5267 13.1504 18.5769 13.1739C18.6271 13.1973 18.6718 13.2311 18.7081 13.273C18.7445 13.3149 18.7715 13.364 18.7876 13.417C18.8037 13.4701 18.8084 13.5259 18.8015 13.5809V13.5809Z" fill="white"/>
</svg>
