<svg width="17" height="17" viewBox="0 0 17 17" fill="none" xmlns="http://www.w3.org/2000/svg">
<path d="M14.5587 9.74221C14.4901 9.80273 14.4487 9.88831 14.4443 9.97966C14.4038 10.8235 14.3345 11.6663 14.2362 12.5065C14.1078 13.6046 13.2199 14.4793 12.1114 14.6032C9.3149 14.9157 6.42192 14.9157 3.62538 14.6032C2.51696 14.4793 1.62905 13.6046 1.50062 12.5065C1.16646 9.64943 1.16646 6.76311 1.50062 3.90601C1.62905 2.80794 2.51696 1.93326 3.62538 1.80938C5.46915 1.60331 7.35709 1.5332 9.22961 1.59886C9.36483 1.60361 9.47993 1.50072 9.48936 1.36574L9.53031 0.779896C9.53282 0.745403 9.53621 0.71128 9.54045 0.677541C9.56079 0.515547 9.44846 0.355815 9.2853 0.350035C7.34733 0.281381 5.39569 0.353742 3.48654 0.567117C1.80983 0.754515 0.456214 2.07536 0.259086 3.7608C-0.0863621 6.71438 -0.0863621 9.69816 0.259086 12.6517C0.456214 14.3372 1.80982 15.658 3.48654 15.8454C6.37535 16.1683 9.36147 16.1683 12.2503 15.8454C13.927 15.658 15.2806 14.3372 15.4777 12.6517C15.6186 11.4477 15.702 10.2387 15.728 9.02876C15.7312 8.87688 15.545 8.80121 15.4383 8.90943C15.1549 9.19714 14.8615 9.47491 14.5587 9.74221Z" fill="#200E32"/>
<path d="M4.42441 10.9561C4.24006 10.9053 4.11394 10.7355 4.11853 10.5444L4.1679 8.49116C4.23858 5.55119 6.64218 3.20469 9.583 3.20469L10.6309 3.20469C10.6528 2.68491 10.6826 2.16539 10.7205 1.6463L10.777 0.870773C10.8115 0.397485 11.3392 0.132913 11.7391 0.388426C13.4649 1.49117 14.9652 2.91208 16.1601 4.57542L16.5402 5.10454C16.6445 5.2498 16.6445 5.44546 16.5402 5.59072L16.1601 6.11984C14.9652 7.78318 13.4649 9.20409 11.7391 10.3068C11.4098 10.5173 10.9926 10.375 10.8367 10.0539C10.804 9.98567 10.783 9.90701 10.777 9.82449L10.7205 9.04895C10.6753 8.42989 10.6415 7.8102 10.6191 7.1902L10.324 7.14579C8.4438 6.86281 6.58411 7.77011 5.64991 9.42618L4.89799 10.7591C4.86217 10.8226 4.81135 10.8739 4.75231 10.91C4.65652 10.9684 4.53838 10.9875 4.42441 10.9561Z" fill="#200E32"/>
</svg>
