<svg width="20" height="20" viewBox="0 0 20 20" fill="none" xmlns="http://www.w3.org/2000/svg">
<path fill-rule="evenodd" clip-rule="evenodd" d="M0 10C0 4.481 4.48 0 10 0C15.53 0 20 4.481 20 10C20 15.521 15.53 20 10 20C4.48 20 0 15.521 0 10ZM9.11914 6.21008C9.11914 5.73108 9.51914 5.33008 9.99914 5.33008C10.4791 5.33008 10.8691 5.73108 10.8691 6.21008V10.6301C10.8691 11.1111 10.4791 11.5001 9.99914 11.5001C9.51914 11.5001 9.11914 11.1111 9.11914 10.6301V6.21008ZM10.0109 14.6812C9.52086 14.6812 9.13086 14.2812 9.13086 13.8012C9.13086 13.3212 9.52086 12.9312 10.0009 12.9312C10.4909 12.9312 10.8809 13.3212 10.8809 13.8012C10.8809 14.2812 10.4909 14.6812 10.0109 14.6812Z" fill="#200E32"/>
</svg>
