<svg width="18" height="17" viewBox="0 0 18 17" fill="none" xmlns="http://www.w3.org/2000/svg">
<path fill-rule="evenodd" clip-rule="evenodd" d="M6.54259 7.64857C6.18005 7.64857 5.89339 7.93031 5.89339 8.28664C5.89339 8.63468 6.18005 8.92471 6.54259 8.92471H11.6013V12.8857C11.6013 14.9159 9.92349 16.5733 7.84942 16.5733H3.74344C1.6778 16.5733 0 14.9242 0 12.894V3.68755C0 1.64904 1.68623 0 3.75187 0H7.86628C9.92349 0 11.6013 1.64904 11.6013 3.67927V7.64857H6.54259ZM14.6096 5.4198L17.0293 7.83121C17.1536 7.95551 17.2199 8.11296 17.2199 8.28698C17.2199 8.45271 17.1536 8.61844 17.0293 8.73446L14.6096 11.1459C14.4853 11.2702 14.3196 11.3365 14.1621 11.3365C13.9964 11.3365 13.8307 11.2702 13.7064 11.1459C13.4578 10.8973 13.4578 10.4912 13.7064 10.2426L15.0322 8.92505H11.6016V7.64891H15.0322L13.7064 6.33133C13.4578 6.08273 13.4578 5.67669 13.7064 5.42809C13.955 5.1712 14.361 5.1712 14.6096 5.4198Z" fill="#E90038"/>
</svg>
