<svg width="89" height="87" viewBox="0 0 89 87" fill="none" xmlns="http://www.w3.org/2000/svg">
<path opacity="0.1" fill-rule="evenodd" clip-rule="evenodd" d="M58.6998 55.8016C71.4312 39.6395 55.7348 41.5234 46.4258 27.7223C37.1168 13.9212 38.7902 -3.48561 24.9891 5.82335C11.188 15.1323 7.5464 33.8667 16.8554 47.6678C26.1643 61.4689 45.9684 71.9636 58.6998 55.8016Z" fill="#FD6B22"/>
<g filter="url(#filter0_f_2_2421)">
<path fill-rule="evenodd" clip-rule="evenodd" d="M52.8947 41.4819C53.3047 41.3604 53.7625 41.5191 54.023 41.868C54.2209 42.1341 54.2806 42.4648 54.1879 42.7765C53.7793 44.1518 52.6223 45.1677 51.2484 45.4492L52.8414 47.0422C52.9783 47.1791 52.9783 47.4016 52.8414 47.5385C52.7726 47.6066 52.6827 47.641 52.5929 47.641C52.503 47.641 52.4131 47.6066 52.3443 47.5378L50.4867 45.6802L48.629 47.5385C48.5602 47.6066 48.4704 47.641 48.3805 47.641C48.2906 47.641 48.2008 47.6066 48.132 47.5378C47.9951 47.4009 47.9951 47.1784 48.132 47.0415L49.7249 45.4485C48.3503 45.167 47.194 44.1511 46.7847 42.7758C46.692 42.4648 46.7524 42.1334 46.9504 41.868C47.2109 41.5198 47.6693 41.3604 48.0793 41.4826C49.1724 41.8076 50.0338 42.6094 50.4867 43.6126C50.9395 42.6087 51.8009 41.8076 52.8947 41.4819ZM47.5141 42.2876C47.4761 42.3382 47.4193 42.4428 47.4586 42.5755C47.818 43.7837 48.8803 44.6606 50.1138 44.8101C49.9642 43.5773 49.0874 42.5151 47.8791 42.1556C47.8489 42.1465 47.8187 42.1416 47.7893 42.1416C47.6854 42.1416 47.5822 42.1964 47.5141 42.2876ZM53.5139 42.5755C53.1544 43.7837 52.0922 44.6606 50.8594 44.8101C51.0082 43.5773 51.8851 42.5144 53.094 42.1549C53.1235 42.1465 53.1537 42.1416 53.1839 42.1416C53.2878 42.1416 53.391 42.1964 53.4591 42.2876C53.497 42.3382 53.5539 42.4428 53.5139 42.5755ZM49.1265 48.0352C48.9271 48.2338 48.6624 48.3434 48.3816 48.3434C48.1007 48.3434 47.8361 48.2338 47.6367 48.0352C47.4373 47.8365 47.3285 47.5711 47.3285 47.2903C47.3285 47.0095 47.438 46.7448 47.6367 46.5454L48.4405 45.7415C47.9772 45.5099 47.5623 45.1995 47.2063 44.8331H43.4672C42.8865 44.8331 42.4141 45.3056 42.4141 45.8862V47.9923C42.4141 48.5729 42.8865 49.0454 43.4672 49.0454H50.1367V47.0242L49.1265 48.0352ZM53.7702 44.8331H57.5094C58.09 44.8331 58.5625 45.3056 58.5625 45.8862V47.9923C58.5625 48.5729 58.09 49.0454 57.5094 49.0454H50.8398V47.0242L51.8501 48.0352C52.0495 48.2338 52.3142 48.3434 52.595 48.3434C52.8758 48.3434 53.1412 48.2345 53.3399 48.0352C53.5386 47.8358 53.6481 47.5718 53.6481 47.2903C53.6481 47.0088 53.5386 46.7441 53.3399 46.5454L52.536 45.7415C52.9994 45.5099 53.4143 45.2002 53.7702 44.8331ZM50.1378 49.7468H43.4682C43.3482 49.7468 43.2309 49.7342 43.1172 49.711V55.0123C43.1172 55.9797 43.9049 56.7674 44.8723 56.7674H50.1378V49.7468ZM57.5075 49.7468H50.8379V56.7674H56.1033C57.0708 56.7674 57.8585 55.9797 57.8585 55.0123V49.711C57.7448 49.7342 57.6275 49.7468 57.5075 49.7468Z" fill="#FD6B22"/>
</g>
<path fill-rule="evenodd" clip-rule="evenodd" d="M55.6569 15.1582C56.5371 14.8974 57.5197 15.238 58.0789 15.9871C58.5039 16.5583 58.632 17.2681 58.433 17.9373C57.5559 20.8897 55.0722 23.0705 52.1227 23.6749L55.5424 27.0945C55.8363 27.3884 55.8363 27.8661 55.5424 28.16C55.3947 28.3062 55.2018 28.3801 55.0089 28.3801C54.816 28.3801 54.623 28.3062 54.4754 28.1585L50.4875 24.1707L46.4997 28.16C46.352 28.3062 46.1591 28.3801 45.9662 28.3801C45.7733 28.3801 45.5804 28.3062 45.4327 28.1585C45.1388 27.8646 45.1388 27.3869 45.4327 27.093L48.8523 23.6734C45.9014 23.069 43.4192 20.8882 42.5405 17.9358C42.3416 17.2681 42.4712 16.5568 42.8962 15.9871C43.4553 15.2395 44.4395 14.8974 45.3196 15.1597C47.6662 15.8575 49.5154 17.5786 50.4875 19.7322C51.4596 17.5771 53.3088 15.8575 55.6569 15.1582ZM44.1046 16.8877C44.0232 16.9962 43.9011 17.2208 43.9855 17.5056C44.7572 20.0994 47.0374 21.9817 49.6854 22.3028C49.3644 19.6563 47.482 17.376 44.8883 16.6044C44.8235 16.5848 44.7587 16.5742 44.6954 16.5742C44.4723 16.5742 44.2508 16.6918 44.1046 16.8877ZM56.9875 17.5056C56.2158 20.0994 53.9356 21.9817 51.2891 22.3028C51.6086 19.6563 53.491 17.3745 56.0862 16.6029C56.1495 16.5848 56.2143 16.5742 56.2791 16.5742C56.5022 16.5742 56.7237 16.6918 56.8699 16.8877C56.9513 16.9962 57.0734 17.2208 56.9875 17.5056ZM57.5329 22.3516H65.5598C66.8062 22.3516 67.8205 23.3659 67.8205 24.6122V29.1336C67.8205 30.38 66.8062 31.3943 65.5598 31.3943H51.2422V27.0553L53.4109 29.2255C53.8389 29.652 54.4071 29.8871 55.01 29.8871C55.6128 29.8871 56.1825 29.6535 56.609 29.2255C57.0355 28.7975 57.2706 28.2308 57.2706 27.6265C57.2706 27.0221 57.0355 26.4539 56.609 26.0274L54.8834 24.3018C55.8781 23.8044 56.7688 23.1398 57.5329 22.3516ZM49.7352 32.9011H35.4176C35.1599 32.9011 34.9082 32.874 34.6641 32.8242V44.2044C34.6641 46.2812 36.355 47.9722 38.4319 47.9722H49.7352V32.9011ZM65.5598 32.9011H51.2422V47.9722H62.5456C64.6224 47.9722 66.3133 46.2812 66.3133 44.2044V32.8242C66.0692 32.874 65.8175 32.9011 65.5598 32.9011ZM47.5658 29.2255C47.1378 29.652 46.5696 29.8871 45.9667 29.8871C45.3639 29.8871 44.7957 29.652 44.3677 29.2255C43.9397 28.799 43.7061 28.2293 43.7061 27.6265C43.7061 27.0236 43.9412 26.4554 44.3677 26.0274L46.0933 24.3018C45.0986 23.8044 44.2079 23.1383 43.4438 22.3516H35.4169C34.1705 22.3516 33.1562 23.3659 33.1562 24.6122V29.1336C33.1562 30.38 34.1705 31.3943 35.4169 31.3943H49.7345V27.0553L47.5658 29.2255Z" fill="#FD6B22"/>
<defs>
<filter id="filter0_f_2_2421" x="12.4141" y="11.4414" width="76.1484" height="75.3262" filterUnits="userSpaceOnUse" color-interpolation-filters="sRGB">
<feFlood flood-opacity="0" result="BackgroundImageFix"/>
<feBlend mode="normal" in="SourceGraphic" in2="BackgroundImageFix" result="shape"/>
<feGaussianBlur stdDeviation="15" result="effect1_foregroundBlur_2_2421"/>
</filter>
</defs>
</svg>
