<svg width="18" height="20" viewBox="0 0 18 20" fill="none" xmlns="http://www.w3.org/2000/svg">
<path fill-rule="evenodd" clip-rule="evenodd" d="M8.7281 19.9137C8.83884 19.9715 8.96266 20.0009 9.08649 20C9.21032 19.999 9.33314 19.9686 9.44489 19.9097L13.0128 18.0025C14.0245 17.4631 14.8168 16.8601 15.435 16.1579C16.779 14.6282 17.5129 12.6758 17.4998 10.6626L17.4575 4.02198C17.4535 3.25711 16.9511 2.57461 16.2082 2.32652L9.57073 0.0995642C9.17106 -0.0357592 8.73313 -0.0328174 8.3405 0.106428L1.72824 2.41281C0.989299 2.67071 0.495998 3.35811 0.500024 4.12397L0.542307 10.7597C0.555395 12.7758 1.31448 14.7194 2.68062 16.2335C3.3048 16.9258 4.10415 17.52 5.12699 18.0505L8.7281 19.9137ZM7.78315 12.1087C7.93214 12.2519 8.12544 12.3225 8.31873 12.3205C8.51203 12.3195 8.70431 12.247 8.8513 12.1018L12.7504 8.25786C13.0434 7.96858 13.0403 7.50377 12.7444 7.21842C12.4474 6.93306 11.9692 6.93502 11.6762 7.2243L8.30766 10.5446L6.92843 9.21885C6.63144 8.93349 6.15424 8.93643 5.86028 9.22571C5.56732 9.51499 5.57034 9.9798 5.86732 10.2652L7.78315 12.1087Z" fill="#200E32"/>
</svg>
