<svg width="20" height="19" viewBox="0 0 20 19" fill="none" xmlns="http://www.w3.org/2000/svg">
<path fill-rule="evenodd" clip-rule="evenodd" d="M15.8573 17.417C17.7323 17.417 19.2503 15.898 19.2503 14.024V11.324C18.0103 11.324 17.0103 10.324 17.0103 9.085C17.0103 7.845 18.0103 6.846 19.2503 6.846L19.2483 4.143C19.2483 2.269 17.7303 0.75 15.8563 0.75H4.1443C2.2703 0.75 0.751298 2.269 0.751298 4.143L0.750298 6.933C1.9893 6.933 2.9893 7.845 2.9893 9.085C2.9893 10.324 1.9893 11.324 0.750298 11.324V14.024C0.750298 15.898 2.2683 17.417 4.1423 17.417H15.8573Z" stroke="white" stroke-width="1.5" stroke-linecap="round" stroke-linejoin="round"/>
<path fill-rule="evenodd" clip-rule="evenodd" d="M9.9998 10.8545L11.7398 11.7695C11.9028 11.8545 12.0938 11.7165 12.0628 11.5355L11.7298 9.59653L13.1388 8.22553C13.2708 8.09653 13.1978 7.87353 13.0158 7.84653L11.0698 7.56353L10.1988 5.79953C10.1178 5.63453 9.8828 5.63453 9.8008 5.79953L8.9298 7.56353L6.9848 7.84653C6.8028 7.87353 6.7298 8.09653 6.8618 8.22553L8.2698 9.59653L7.9368 11.5355C7.9058 11.7165 8.0968 11.8545 8.2598 11.7695L9.9998 10.8545Z" stroke="white" stroke-width="1.5" stroke-linecap="round" stroke-linejoin="round"/>
</svg>
