<svg width="20" height="18" viewBox="0 0 20 18" fill="none" xmlns="http://www.w3.org/2000/svg">
<path fill-rule="evenodd" clip-rule="evenodd" d="M17.761 9.00099C17.761 9.81449 18.429 10.4764 19.25 10.4764C19.664 10.4764 20 10.8093 20 11.2195V13.8958C20 16.159 18.142 18 15.858 18H4.143C1.859 18 0 16.159 0 13.8958V11.2195C0 10.8093 0.336 10.4764 0.75 10.4764C1.572 10.4764 2.24 9.81449 2.24 9.00099C2.24 8.2083 1.599 7.6118 0.75 7.6118C0.551 7.6118 0.361 7.53352 0.22 7.39381C0.079 7.2541 0 7.06485 0 6.86866L0.002 4.10514C0.002 1.84201 1.86 0 4.144 0H15.856C18.14 0 19.999 1.84201 19.999 4.10514L20 6.78245C20 6.97864 19.921 7.16889 19.781 7.30761C19.64 7.44732 19.45 7.5256 19.25 7.5256C18.429 7.5256 17.761 8.18749 17.761 9.00099ZM12.252 9.64787L13.431 8.51036C13.636 8.31417 13.707 8.02484 13.618 7.75731C13.53 7.48977 13.3 7.29953 13.022 7.26088L11.393 7.02506L10.664 5.56255C10.539 5.31087 10.285 5.15431 10.002 5.15332H10C9.71801 5.15332 9.46401 5.30988 9.33701 5.56156L8.60801 7.02506L6.98201 7.25989C6.70101 7.29953 6.47101 7.48977 6.38201 7.75731C6.29401 8.02484 6.36501 8.31417 6.56901 8.51036L7.74801 9.64787L7.47001 11.256C7.42201 11.5335 7.53501 11.8089 7.76501 11.9744C7.89501 12.0666 8.04601 12.1141 8.19901 12.1141C8.31601 12.1141 8.43401 12.0854 8.54201 12.0289L10 11.2699L11.455 12.0269C11.707 12.1607 12.006 12.1399 12.235 11.9734C12.466 11.8089 12.579 11.5335 12.531 11.256L12.252 9.64787Z" fill="white"/>
</svg>
