<svg width="20" height="16" viewBox="0 0 20 16" fill="none" xmlns="http://www.w3.org/2000/svg">
<path fill-rule="evenodd" clip-rule="evenodd" d="M4.11304 0.5H9.9051C12.3271 0.5 14.0181 2.16904 14.0181 4.56091V11.4391C14.0181 13.831 12.3271 15.5 9.9051 15.5H4.11304C1.69102 15.5 0 13.831 0 11.4391V4.56091C0 2.16904 1.69102 0.5 4.11304 0.5ZM17.9579 2.87879C18.3969 2.65544 18.9119 2.67879 19.3309 2.94275C19.7499 3.20569 19.9999 3.66255 19.9999 4.16204V11.8382C19.9999 12.3387 19.7499 12.7945 19.3309 13.0575C19.1019 13.2006 18.8459 13.2737 18.5879 13.2737C18.3729 13.2737 18.1579 13.223 17.9569 13.1204L16.4759 12.3732C15.9279 12.095 15.5879 11.5367 15.5879 10.9164V5.08285C15.5879 4.46153 15.9279 3.90316 16.4759 3.62701L17.9579 2.87879Z" fill="#200E32"/>
</svg>
